<?xml version="1.0" standalone="no"?>
<!DOCTYPE svg PUBLIC "-//W3C//DTD SVG 20010904//EN"
 "http://www.w3.org/TR/2001/REC-SVG-20010904/DTD/svg10.dtd">
<svg version="1.0" xmlns="http://www.w3.org/2000/svg"
 width="290.000000pt" height="290.000000pt" viewBox="0 0 290.000000 290.000000"
 preserveAspectRatio="xMidYMid meet">
<metadata>
Created by potrace 1.11, written by Peter Selinger 2001-2013
</metadata>
<g transform="translate(0.000000,290.000000) scale(0.100000,-0.100000)"
fill="#000000" stroke="none">
<path d="M1328 2723 c-14 -2 -55 -21 -90 -42 -75 -45 -145 -131 -178 -218 -30
-78 -32 -192 -6 -251 22 -49 32 -28 -77 -162 -71 -86 -185 -272 -243 -395 -60
-126 -77 -202 -71 -300 11 -155 70 -265 187 -343 79 -53 86 -69 32 -78 -58 -9
-112 -43 -146 -92 -25 -35 -31 -55 -34 -111 -5 -76 7 -108 57 -155 30 -29 31
-31 31 -125 -1 -89 -10 -133 -45 -213 -5 -13 -3 -18 10 -18 9 0 19 9 22 20 3
11 12 20 19 20 8 0 14 -9 14 -20 0 -19 7 -20 100 -20 l100 0 0 85 c0 85 18
155 39 155 21 0 43 -51 47 -112 3 -35 7 -78 10 -95 l5 -33 474 0 475 0 0 58 1
57 27 -55 27 -55 117 -3 118 -3 -35 63 c-43 79 -81 178 -93 246 -8 48 -7 53
15 74 61 56 83 156 54 242 -28 83 -148 176 -228 176 -18 0 -33 3 -33 6 0 4 14
22 31 42 131 149 132 436 2 697 -108 216 -349 480 -482 526 -36 13 -36 9 -15
90 26 101 3 217 -55 283 -35 40 -122 68 -183 59z m-48 -97 c0 -15 -21 -26 -51
-26 -24 0 -25 16 -1 29 25 15 52 13 52 -3z m-80 -41 c0 -18 -34 -67 -60 -85
-32 -22 -41 -65 -19 -87 14 -14 3 -99 -13 -109 -20 -12 -29 21 -25 91 4 78 30
140 73 174 26 20 44 27 44 16z m-22 -117 c-7 -19 -38 -22 -38 -4 0 10 9 16 21
16 12 0 19 -5 17 -12z m392 -227 l41 -18 -23 -28 -24 -27 -37 18 c-20 10 -37
20 -37 24 0 5 32 49 36 50 1 0 21 -8 44 -19z m-615 -283 c-55 -90 -134 -256
-160 -338 -36 -113 -45 -260 -20 -346 16 -54 26 -68 137 -177 67 -65 118 -120
114 -124 -3 -3 -44 12 -90 35 -89 45 -168 118 -206 192 -54 106 -49 249 15
401 57 136 209 399 231 399 3 0 -7 -19 -21 -42z m577 16 c40 -8 88 -67 88
-109 0 -60 -49 -78 -315 -116 -241 -34 -306 -21 -336 68 -14 44 4 73 65 101
111 53 369 82 498 56z m-98 -570 c9 -71 7 -132 -5 -140 -6 -4 -27 -10 -45 -14
l-34 -8 0 98 c0 105 0 106 56 109 18 1 22 -6 28 -45z m-104 -60 c0 -85 -2 -95
-17 -92 -27 5 -53 66 -53 125 0 54 2 56 58 62 9 1 12 -24 12 -95z m-350 -442
c0 -86 113 -155 300 -182 165 -24 459 28 568 101 51 34 52 34 52 10 0 -22 -92
-74 -160 -91 -129 -32 -176 -40 -290 -46 -143 -7 -258 5 -351 37 -121 42 -159
82 -159 168 0 49 1 51 20 39 11 -7 20 -23 20 -36z m-177 -44 c-53 -58 -71
-133 -49 -198 l16 -45 -19 25 c-24 31 -34 79 -25 124 6 35 67 116 87 116 6 0
1 -10 -10 -22z m268 -284 c13 -16 4 -44 -18 -51 -18 -6 -57 33 -50 50 8 21 50
22 68 1z m-241 -221 c0 -49 -13 -83 -26 -70 -7 7 13 117 22 117 2 0 4 -21 4
-47z"/>
<path d="M920 1040 c0 -11 7 -20 15 -20 8 0 15 9 15 20 0 11 -7 20 -15 20 -8
0 -15 -9 -15 -20z"/>
</g>
</svg>
